<svg version="1.2" xmlns="http://www.w3.org/2000/svg" viewBox="0 0 1920 1080" width="1920" height="1080">
	<title>8e6ea46f-ea24-4e17-aec5-42adccc52358</title>
	<style>
		.s0 { fill: #ffff } 
	</style>
	<g>
		<path class="s0" d="m603 114.7c-9.8 1.7-12.9 5.1-13.7 14.6-0.6 7.5-2.8 13.9-5.7 16.5-3.1 2.9-12.6 5.6-16.9 4.8-3.3-0.6-15.5-6.5-30.7-14.9-20.3-11.1-23.2-12.1-29.7-9.6-4.4 1.6-10.3 7.9-13.1 13.9-2.5 5.4-2.6 6.2-3.3 36-0.5 16.8-1.3 45.1-1.9 62.9-0.5 17.8-1 46.4-1 63.7 0 49.1-3.6 77.3-13.6 106.9-14.2 41.7-38.3 64.2-89.4 83.5-4.7 1.7-10.1 3.8-12 4.5-1.9 0.7-7.5 2.8-12.5 4.5-45.9 16.4-80.6 47.8-92.4 83.5-3 9.2-7.2 28.7-9.5 44.5-0.9 5.8-2.2 15-3.1 20.5-2.2 14.5-2 23.9 0.5 28.1 2.5 3.9 8.8 7.8 17.3 10.6 9 2.9 21.5 8.8 65.2 30.9 43.9 22.1 50.2 25.4 80.8 42.1 26.1 14.2 27.9 15.2 43.2 24 10.5 6 50 26.1 57.9 29.5 1.5 0.7 6.7 2.8 11.5 4.8 4.7 2 10 4.3 11.6 5 1.7 0.7 7.1 2.7 12 4.4 5 1.8 10.1 3.7 11.5 4.3 1.4 0.5 7.2 2.5 13 4.5 5.8 1.9 11.4 3.8 12.5 4.3 2.4 1 29.5 8.9 41 11.9 4.4 1.2 9.6 2.6 11.5 3.1 29.9 8.3 82.3 17.8 118 21.4 35.5 3.6 53.2 4 207 4.6 96.6 0.4 160.7 1.1 173 1.8 86.7 5.2 141.2 6.6 254 6.7 104.5 0 102.1 0.1 106.5-6.3 2.3-3.3 2.5-4.6 2.5-14.5 0-7.4 0.5-11.9 1.5-14.4 0.9-2.2 6.8-8.8 14.3-16.2 8.6-8.4 13.6-14.3 15.2-17.6 2.5-5 2.5-5 2.8-231.5 0.2-147.8-0.1-232.2-0.8-243-0.9-14.6-2.7-24.9-5.5-32.5-1.4-3.6-4.6-11-5.4-12.5-8.8-16.3-13.1-21.9-28.6-36.8-10.9-10.5-12.8-13.2-10.5-14.7 1.6-1 1.1-3.5-0.6-3.5-0.9 0-2.2 0.8-2.9 1.7-1.2 1.6-1.6 1.4-5.1-1.7-5-4.3-16.7-14.7-25.8-23-16.3-14.8-24.4-22-28.7-25.6-8.3-7-33.4-28.8-34.4-30-0.5-0.6-5.3-4.6-10.5-9-5.2-4.3-9.9-8.4-10.5-9-0.5-0.6-5.3-4.6-10.5-9-5.2-4.3-10.5-8.9-11.9-10.2-6-5.5-9.1-6.7-18.1-6.7-9.9 0-12.9 1.3-19.9 8.4-9 9-12.6 20.6-11.8 37.6 0.9 20.1 7.3 32.9 26.2 52.5 14 14.5 20.3 22.4 24.7 31.2 4.4 8.6 4.5 18.4 0.4 30.7-4 12.2-11.8 27.1-14.1 27.1-0.6 0-1.5 1.3-2.1 2.8-1.1 2.9-13.4 12.8-19.4 15.5-14.1 6.4-21.7 7.5-59 8.2-16.8 0.3-62.2 1.2-101 2-38.8 0.8-78.6 1.9-88.5 2.4-52.7 3-110.7 4.3-255 5.7-60.4 0.6-68.4 0.5-71.7-0.9-6.7-2.8-6.5-0.8-7.3-67.2-0.7-64-1.1-70-6.1-85.1-4.7-14.5-14.9-31.6-26.2-43.9-12.7-13.8-32.6-26.4-52.4-33-11.5-3.8-35.6-7.1-42.8-5.8zm27.5 9c48.3 10.6 83.2 46.1 91.7 93.3 0.7 4.2 1.3 27.6 1.7 67 0.6 60.5 0.6 60.5 3.1 65 1.7 3 3.8 5.2 6.5 6.5 3.9 1.9 5.8 2 56.5 1.9 69.3-0.2 192-2.1 224-3.4 14-0.6 39.9-1.7 57.5-2.5 17.6-0.9 59.2-2 92.5-2.6 135.3-2.3 134.6-2.2 151.5-10.4 17.1-8.3 26.8-19.2 37.5-42.5 3.8-8.2 6.1-23 4.9-31.6-1.7-12-12.1-27.3-33.1-48.6-19-19.2-22.3-33.9-12-54.8 1.5-3 4.7-7.6 7.3-10.3 4.3-4.4 4.8-4.7 9.8-4.7 5.4 0 9.8 2.2 16.1 8.2 1.4 1.3 7.7 6.8 14 12.3 6.3 5.4 11.7 10.2 12 10.5 0.3 0.4 5 4.5 10.5 9 5.5 4.6 10.5 8.9 11 9.5 0.6 0.6 6 5.4 12 10.6 6.1 5.1 11.2 9.6 11.5 9.9 0.3 0.3 5 4.4 10.5 9 5.5 4.7 10.9 9.4 12 10.5 1.1 1.1 5.2 4.7 9 7.9 3.9 3.2 10.4 8.8 14.5 12.5 20.2 18 22 20.3 24.6 31.9 1.5 6.8 2.2 8 6.8 12.6 2.8 2.8 7.2 6.8 9.8 8.9 5.2 4.1 11.1 13.5 14.8 23.2 2.2 5.9 5.9 35 6 46.8 0 2.6 0.9 6.7 1.9 9 5.4 12 5.1-2.4 4.9 222.7-0.3 207.5-0.3 207.5-4.5 213.1-2.3 3.1-8.7 9.8-14.2 14.9-13.2 12.3-14.4 14.6-14.9 30.8-0.4 12.3-0.4 12.3-3.6 14-2.9 1.6-10.6 1.7-103.6 1.7-115.4-0.1-163.8-1.3-253.5-6.7-12.8-0.7-74.6-1.4-172.5-1.8-152.6-0.6-167.8-1-203.5-4.6-33.6-3.3-70-9.8-107.4-19-15.8-3.9-24.7-6.4-54.1-15-6.1-1.7-21.9-7-25-8.2-1.4-0.6-7.7-3-14-5.3-6.3-2.3-12.8-4.7-14.5-5.5-1.6-0.7-7-2.9-12-4.9-9.9-4-11.1-4.6-29.8-13.4-12-5.6-30-15.2-42.7-22.6-6.9-4-9.6-5.6-41-22.8-28.7-15.8-48.5-26.1-67.5-35.5-7.1-3.5-14.4-7.5-16.2-8.8-1.7-1.3-3.6-2.4-4.2-2.4-0.6 0-10.2-4.4-21.3-9.8-25.9-12.6-26.1-12.7-33.8-15.3-8.2-2.7-15.2-6.2-17.1-8.5-2.3-2.8-1.7-11.1 3.7-45.9 2.9-18.2 6.8-36.2 9.8-44.4 2.6-7.2 10.5-21.1 15.7-27.6 5.7-7.3 17.5-18.7 24.9-24.2 6.3-4.7 21.3-13.8 28-17 5.6-2.7 25.5-10.5 33.5-13.1 21.5-7.2 49.8-20.8 60-28.9 26-20.7 40-44.1 48.8-81.7 6.7-28.4 7.7-40.5 8.7-103.1 1.4-93.6 2.9-140.4 4.8-145 2.1-4.9 6.5-10.1 10.4-12.1 3.2-1.6 3.2-1.6 36.3 16.3 13.4 7.2 16.8 8.4 24 8.4 7 0 14-2.3 18.7-6.1 4.3-3.6 7.8-12.7 7.8-20.5 0-5.4 1.4-7.7 5.5-8.8 3.3-1 21.5 0.3 29 2zm706.7 10.9c1.5 0.8 3.5 2.2 4.5 3.2 1 1 16.2 14.2 33.8 29.2 17.6 15.1 32.5 27.9 33 28.5 0.6 0.7 6 5.4 12 10.6 6.1 5.1 11.5 9.9 12 10.5 0.6 0.6 4.4 3.9 8.5 7.4 4.1 3.4 12.7 11.1 19 17 6.3 5.9 13 12.1 14.9 13.7 2.3 2 3.2 3.5 2.8 4.6-0.9 2.4-1.7 2.1-5.7-1.6-1.9-1.8-7.5-6.8-12.5-11.1-13.9-12.1-20-17.4-33-28.7-6.6-5.8-15.1-13.2-19-16.4-3.8-3.3-7.4-6.4-8-7-0.5-0.7-5.9-5.4-12-10.6-6-5.1-11.2-9.6-11.5-9.9-0.3-0.3-3.9-3.4-8-6.9-4.1-3.5-9.7-8.4-12.4-11-21.4-20-32.6-20.1-45.1-0.7-1.9 2.9-3.7 6.5-4.1 8-1 4.1-2.4 4.1-2.4-0.1 0-8.9 5.3-20 12.3-25.6 6.8-5.7 13.9-6.7 20.9-3.1zm157.5 138.6c13.6 13.4 19.7 21.2 25.5 32.7 9.1 18.2 10.7 26.1 11.5 55.3 0.5 16.8 0.3 22.8-0.5 22.8-1.6 0-2-2.6-2.6-16.5-1-22.9-3.9-37.2-9.7-46.5-0.5-0.8-1.8-3.1-2.9-5.1-2.3-4.4-6.7-9.1-13.5-14.3-7.2-5.6-9.4-8.5-10.1-13.6-0.9-6.1-4.7-14.4-8.9-19.6-1.9-2.3-3.5-4.7-3.5-5.3 0-3.1 4.4 0 14.7 10.1z"/>
	</g>
</svg>