<?xml version="1.0" standalone="no"?>
<!DOCTYPE svg PUBLIC "-//W3C//DTD SVG 20010904//EN"
 "http://www.w3.org/TR/2001/REC-SVG-20010904/DTD/svg10.dtd">
<svg version="1.0" xmlns="http://www.w3.org/2000/svg"
 width="382.000000pt" height="170.000000pt" viewBox="0 0 382.000000 170.000000"
 preserveAspectRatio="xMidYMid meet">
<metadata>
Created by potrace 1.16, written by Peter Selinger 2001-2019
</metadata>
<g transform="translate(0.000000,170.000000) scale(0.100000,-0.100000)"
fill="#ffffff" stroke="none">
<path d="M2444 1616 c-43 -19 -64 -53 -64 -104 0 -54 22 -97 59 -117 16 -8 63
-16 104 -18 102 -5 133 -24 176 -111 41 -83 52 -152 26 -162 -11 -4 -29 0 -44
9 -104 65 -146 81 -211 81 -81 1 -130 -22 -241 -110 -44 -35 -97 -68 -117 -75
-23 -6 -188 -14 -427 -18 -387 -7 -391 -7 -463 -33 -154 -55 -278 -157 -417
-343 -46 -61 -98 -124 -115 -138 -62 -53 -111 -44 -131 23 -11 38 -9 50 36
183 94 281 59 364 -149 355 -78 -3 -99 -8 -139 -31 -87 -51 -138 -142 -153
-275 -12 -108 53 -443 109 -567 43 -93 -110 -84 1569 -91 1424 -5 1484 -5
1518 13 47 24 73 76 65 128 -9 61 -25 77 -121 126 -89 44 -89 44 -974 49 -870
5 -886 5 -920 26 -41 24 -80 86 -80 129 0 73 66 138 185 180 70 25 70 25 656
25 656 0 657 0 889 -71 166 -50 310 -63 385 -34 120 45 208 209 190 351 -8 67
-69 190 -127 260 -194 230 -226 262 -295 297 -41 22 -176 43 -393 62 -216 18
-345 19 -386 1z m539 -55 c235 -29 241 -32 394 -204 142 -160 178 -209 210
-287 55 -134 -1 -305 -124 -377 -43 -25 -57 -28 -133 -27 -63 1 -108 8 -175
29 -208 65 -250 75 -353 86 -152 16 -1430 7 -1489 -11 -53 -15 -121 -73 -141
-119 -28 -66 -52 -176 -52 -238 0 -73 15 -95 77 -112 26 -7 376 -11 1076 -11
1114 0 1090 1 1117 -50 18 -34 8 -81 -23 -104 -28 -21 -28 -21 -1487 -24
-1151 -2 -1466 0 -1496 10 -57 19 -78 59 -118 226 -64 266 -71 353 -36 464 38
124 120 187 241 188 84 0 126 -15 144 -51 23 -44 18 -81 -30 -227 -56 -168
-61 -243 -19 -286 21 -21 36 -26 73 -26 75 0 96 17 208 170 81 111 239 260
319 302 125 66 155 70 569 74 210 3 386 9 408 15 21 5 75 39 121 74 170 129
217 137 365 62 103 -53 138 -57 159 -17 35 68 -41 257 -122 303 -11 6 -60 14
-108 17 -73 5 -91 10 -112 29 -47 44 -46 109 2 136 37 21 305 14 535 -14z
m-1539 -820 c3 -4 -17 -22 -44 -40 -115 -75 -119 -235 -7 -309 41 -27 41 -27
933 -32 696 -4 896 -8 906 -18 10 -9 -191 -12 -1000 -12 -1125 0 -1065 -4
-1078 65 -4 23 2 63 20 125 46 160 71 192 169 216 63 15 94 17 101 5z"/>
</g>
</svg>
